# xmcd CD database file
#
# Track frame offsets:
#	150
#	78311
#	130456
#	157069
#	179602
#	200162
#	243065
#	290818
#	323854
#
# Disc length: 4550 seconds
#
# Revision: 0
# Processed by: cddbd v1.5PL3 Copyright (c) Steve Scherf et al.
# Submitted via: CDex 1.51
#
DISCID=8811c409
DTITLE=Jaco Pastorius - Fretless Pandemonium Disc 2
DYEAR=1900
DGENRE=Jazz
TTITLE0=Punk Jazz/Star Spangled Banner
TTITLE1=Teen Town
TTITLE2=Dear Prudence
TTITLE3=Why I Sing The Blues
TTITLE4=N.Y.C. Groove
TTITLE5=Son Of Creeper
TTITLE6=Invitation
TTITLE7=Three Views Of A Secret
TTITLE8=Naima
EXTD=
EXTT0=
EXTT1=
EXTT2=
EXTT3=
EXTT4=
EXTT5=
EXTT6=
EXTT7=
EXTT8=
PLAYORDER=
